<?xml version="1.0" encoding="UTF-8"?>
<svg viewBox="0 0 206.45007 329.81616" xmlns="http://www.w3.org/2000/svg" xmlns:xlink="http://www.w3.org/1999/xlink">
 <defs>
  <filter id="f">
   <feGaussianBlur stdDeviation="6.6331"/>
  </filter>
  <filter id="e">
   <feGaussianBlur stdDeviation="2.2019"/>
  </filter>
  <filter id="a" x="-1.6873" y="-.04207" width="4.3747" height="1.0841">
   <feGaussianBlur stdDeviation="5.94185"/>
  </filter>
  <linearGradient id="b">
   <stop stop-color="#fff" offset="0"/>
   <stop stop-color="#fff" stop-opacity="0" offset="1"/>
  </linearGradient>
  <linearGradient id="d" x1="395.6" x2="380.23" y1="-750.87" y2="573.04" gradientUnits="userSpaceOnUse" xlink:href="#b"/>
  <linearGradient id="c" x1="376.56" x2="375.15" y1="745.29" y2="212.88" gradientUnits="userSpaceOnUse" xlink:href="#b"/>
 </defs>
 <g transform="matrix(.55012 0 0 .55012 -104.44 -86.929)">
  <path transform="matrix(1 0 0 .97472 0 18.762)" d="m221 201.06h313c8.4323 0 15.221 6.7885 15.221 15.221v510.53c0 8.4323-6.7885 15.221-15.221 15.221h-313c-8.4323 0-15.221-6.7885-15.221-15.221v-510.53c0-8.4323 6.7885-15.221 15.221-15.221z" fill="#1a1a1a" filter="url(#f)"/>
  <g transform="translate(5.0572)" fill="#1a1a1a" filter="url(#e)">
   <path transform="translate(25.192 10.497)" d="m387.32 190.07c0 20.58-16.683 37.263-37.263 37.263s-37.263-16.683-37.263-37.263 16.683-37.263 37.263-37.263 37.263 16.683 37.263 37.263z"/>
   <path d="m372.03 185.36c-0.0865 0-0.16008 0.0669-0.16008 0.15341v8.4242c-2.6457 1.2238-4.4755 3.8406-4.4755 6.8767 0 4.2069 3.5066 7.6171 7.8372 7.6171s7.8439-3.4102 7.8439-7.6171c0-3.0392-1.8322-5.6612-4.4822-6.8834v-8.4175c0-0.0865-0.0669-0.15341-0.15341-0.15341h-6.4098z"/>
  </g>
  <g transform="translate(5.0572)">
   <path transform="translate(25.192 10.497)" d="m387.32 190.07c0 20.58-16.683 37.263-37.263 37.263s-37.263-16.683-37.263-37.263 16.683-37.263 37.263-37.263 37.263 16.683 37.263 37.263z" fill="#4d4d4d"/>
   <path d="m372.03 185.36c-0.0865 0-0.16008 0.0669-0.16008 0.15341v8.4242c-2.6457 1.2238-4.4755 3.8406-4.4755 6.8767 0 4.2069 3.5066 7.6171 7.8372 7.6171s7.8439-3.4102 7.8439-7.6171c0-3.0392-1.8322-5.6612-4.4822-6.8834v-8.4175c0-0.0865-0.0669-0.15341-0.15341-0.15341h-6.4098z" fill="#fff"/>
  </g>
  <path d="m222.07 215.42h316.48c7.4674 0 13.479 6.0117 13.479 13.479v452.11c0 7.4674-6.0116 13.479-13.479 13.479h-316.48c-7.4674 0-13.479-6.0117-13.479-13.479v-452.11c0-7.4674 6.0116-13.479 13.479-13.479z" fill="#1a1a1a"/>
  <path d="m222.07 215.42h316.48c7.4674 0 13.479 6.0117 13.479 13.479v452.11c0 7.4674-6.0116 13.479-13.479 13.479h-316.48c-7.4674 0-13.479-6.0117-13.479-13.479v-452.11c0-7.4674 6.0116-13.479 13.479-13.479z" fill="url(#c)"/>
  <path d="m282.0137,235.73932h194.55858c.47855,0 .8638.38525.8638.8638v423.38419c0,.47854-.38525.86379-.8638.86379h-194.55858c-.47854,0-.8638-.38525-.8638-.86379v-423.38419c0-.47855.38526-.8638.8638-.8638z" fill="#fff" stroke="#ccc"/>
  <path d="m294.08282,249.80846h178.17562c.47854,0 .8638.38525.8638.86379v423.38419c0,.47855-.38526.8638-.8638.8638h-178.17562c-.47854,0-.8638-.38525-.8638-.8638v-423.38419c0-.47854.38526-.86379.8638-.86379z" fill="#ccc" stroke="#ccc" stroke-width=".95736"/>
  <path d="m247.24025,281.69614h274.3216c.42554,0 .76812.34258.76812.76812v415.13593c0,.42554-.34258.76813-.76812.76813h-274.3216c-.42554,0-.76813-.34259-.76813-.76813v-415.13593c0-.42554.34259-.76812.76813-.76812z" fill="#333"/>
  <path d="m247.24025,281.69614h274.3216c.42554,0 .76812.34258.76812.76812v415.13593c0,.42554-.34258.76813-.76812.76813h-274.3216c-.42554,0-.76813-.34259-.76813-.76813v-415.13593c0-.42554.34259-.76812.76813-.76812z" fill="url(#d)" opacity=".47222"/>
  <path d="m511.64 280.54s25.428 8.6912 38.666-24.034c1.6098 152.32 1.6942 442.97 1.6942 442.97s8.8277-0.22753-41.41 0c0 0-5.0796-319.97 1.0497-418.93z"/>
  <path d="m248.09 281.6s-25.428 8.6972-38.666-24.05c-1.6098 152.43-0.64451 440.78-0.64451 440.78h41.005z"/>
  <path d="m249.24 281.7h274.32c0.42554 0 0.87859 0.34993 0.76812 0.75254-230.71 4.9698-34.03 312.83-275.09 407.47-0.23786 0.34571-0.76813-0.33564-0.76813-0.75255v-406.72c0-0.41691 0.34259-0.75254 0.76813-0.75254z" fill="#ccc" opacity=".11111"/>
  <path transform="matrix(1 0 0 1.1634 -4.6953 -45.801)" d="m237.58 461.23c0 93.612-1.8919 169.5-4.2257 169.5s-4.2257-75.887-4.2257-169.5 1.8919-169.5 4.2257-169.5 4.2257 75.887 4.2257 169.5z" fill="#fff" filter="url(#a)" opacity=".11111"/>
  <path transform="matrix(1 0 0 1.1634 294.86 -48.618)" d="m237.58 461.23c0 93.612-1.8919 169.5-4.2257 169.5s-4.2257-75.887-4.2257-169.5 1.8919-169.5 4.2257-169.5 4.2257 75.887 4.2257 169.5z" fill="#fff" filter="url(#a)" opacity=".11111"/>
  <path d="m208.97 696.46h343.14v36.623h-343.14z"/>
  <path transform="matrix(0 1 -.69824 0 688.09 483.43)" d="m237.58 461.23c0 93.612-1.8919 169.5-4.2257 169.5s-4.2257-75.887-4.2257-169.5 1.8919-169.5 4.2257-169.5 4.2257 75.887 4.2257 169.5z" fill="#fff" filter="url(#a)" opacity=".11111"/>
  <g fill="#ccc" font-family="Sans" font-size="34.791" letter-spacing="0" opacity=".56481" word-spacing="0">
   <path d="m282.01969,485.19027v13.3251h7.48015v-3.20081c-2e-005-.7654.10436-1.29887.31312-1.6004 .3479-.48707.82338-.73061 1.42645-.73062 .62623,1e-005 1.1249.27834 1.49603.83499 .16234.25515.24352.75382.24354,1.49603v6.67995h-16.42153c-.78861,0-1.31048-.11597-1.56562-.34792-.48708-.34791-.73062-.81179-.73062-1.39165 0-.67263.27833-1.17131.835-1.49603 .25513-.16236.74221-.24354 1.46124-.24354h1.9831v-13.3251h-1.9831c-.76542,1e-005-1.28729-.10436-1.56562-.31312-.48708-.3711-.73062-.84658-.73062-1.42645 0-.67262.27833-1.17129.835-1.49603 .25513-.16234.74221-.24352 1.46124-.24354h7.44535c.74221,2e-005 1.26408.10439 1.56561.31312 .48707.37113.73061.84661.73062,1.42645-1e-005,.67265-.27834,1.17133-.83499,1.49603-.25515.16237-.74223.24355-1.46124.24354h-1.98311"/>
   <path d="m313.11 496.01h-14.195c0.78859 2.0411 2.6905 3.0616 5.7058 3.0616 1.2989 0 3.1892-0.32472 5.671-0.97416 0.46387-0.11597 0.84657-0.17395 1.1481-0.17396 0.46387 1e-5 0.85817 0.17397 1.1829 0.52188 0.3247 0.32472 0.48706 0.73062 0.48708 1.2177-2e-5 0.67264-0.40592 1.1945-1.2177 1.5656-0.78862 0.34791-1.9483 0.64944-3.4791 0.90457-1.5076 0.27833-2.8761 0.4175-4.1054 0.4175-2.6905 0-4.894-0.75381-6.6104-2.2614s-2.5746-3.4443-2.5746-5.8102c0-2.2962 0.85819-4.2214 2.5746-5.7754 1.7396-1.5772 3.8734-2.3658 6.4016-2.3658 2.5978 2e-5 4.7432 0.78862 6.4364 2.3658 1.7164 1.5772 2.5745 3.5603 2.5746 5.9493v1.3569m-14.091-3.0616h10.229c-0.27835-0.95096-0.8814-1.7048-1.8092-2.2614-0.92778-0.57985-2.0295-0.86978-3.3052-0.86979s-2.389 0.28994-3.34 0.86979c-0.92778 0.57986-1.5192 1.3337-1.7744 2.2614"/>
   <path d="m322.28094,490.26981v6.81911c-1e-005,.64944.0928,1.07854.27833,1.28728 .41749.46389 1.32206.69583 2.71372.69583 1.83234,0 3.52552-.3943 5.07955-1.18291 .48706-.25513.89296-.3827 1.2177-.3827 .46386,0 .85817.17396 1.1829.52187s.48706.76541.48708,1.25249c-2e-005,.4175-.12758.76541-.3827,1.04374-.25516.25514-.70745.53347-1.35687.83499-.83501.39431-1.86715.71903-3.09643.97416-1.20611.27833-2.26145.4175-3.16602.4175-1.97152,0-3.53713-.42909-4.69683-1.28728s-1.73958-2.0295-1.73957-3.51393v-7.48015h-1.2177c-.76541,1e-005-1.29888-.11596-1.60041-.34791-.46388-.34791-.69582-.81179-.69582-1.39166 0-.67262.27833-1.17129.83499-1.49603 .25514-.16234.74221-.24352 1.46124-.24354h1.2177v-3.06164c-1e-005-.76539.11596-1.29886.34791-1.6004 .34791-.46387.81179-.69581 1.39166-.69583 .67262,2e-005 1.1713.27835 1.49603.83499 .16235.25516.24353.74224.24354,1.46124v3.06164h6.29724c.7422,2e-005 1.27567.10439 1.6004.31312 .46387.39432.69581.8698.69583,1.42645-2e-005,.67265-.27835,1.17132-.835,1.49603-.25515.16237-.74223.24355-1.46123.24354h-6.29724"/>
   <path d="m343.14218,490.26981v6.81911c-1e-005,.64944.0928,1.07854.27833,1.28728 .41749.46389 1.32206.69583 2.71373.69583 1.83233,0 3.52551-.3943 5.07954-1.18291 .48706-.25513.89296-.3827 1.2177-.3827 .46386,0 .85817.17396 1.1829.52187s.48706.76541.48708,1.25249c-2e-005,.4175-.12758.76541-.3827,1.04374-.25516.25514-.70745.53347-1.35687.83499-.83501.39431-1.86715.71903-3.09643.97416-1.20611.27833-2.26145.4175-3.16602.4175-1.97152,0-3.53713-.42909-4.69683-1.28728s-1.73958-2.0295-1.73957-3.51393v-7.48015h-1.2177c-.76541,1e-005-1.29888-.11596-1.6004-.34791-.46389-.34791-.69583-.81179-.69583-1.39166 0-.67262.27833-1.17129.83499-1.49603 .25514-.16234.74221-.24352 1.46124-.24354h1.2177v-3.06164c-1e-005-.76539.11596-1.29886.34791-1.6004 .34791-.46387.81179-.69581 1.39166-.69583 .67262,2e-005 1.1713.27835 1.49603.83499 .16235.25516.24353.74224.24354,1.46124v3.06164h6.29724c.7422,2e-005 1.27567.10439 1.6004.31312 .46387.39432.69581.8698.69583,1.42645-2e-005,.67265-.27835,1.17132-.835,1.49603-.25515.16237-.74223.24355-1.46123.24354h-6.29724"/>
   <path d="m375.69 496.01h-14.195c0.7886 2.0411 2.6905 3.0616 5.7058 3.0616 1.2989 0 3.1892-0.32472 5.671-0.97416 0.46387-0.11597 0.84657-0.17395 1.1481-0.17396 0.46386 1e-5 0.85816 0.17397 1.1829 0.52188 0.3247 0.32472 0.48706 0.73062 0.48708 1.2177-2e-5 0.67264-0.40592 1.1945-1.2177 1.5656-0.78862 0.34791-1.9483 0.64944-3.4791 0.90457-1.5076 0.27833-2.8761 0.4175-4.1054 0.4175-2.6905 0-4.894-0.75381-6.6104-2.2614s-2.5746-3.4443-2.5746-5.8102c-1e-5 -2.2962 0.85818-4.2214 2.5746-5.7754 1.7396-1.5772 3.8734-2.3658 6.4016-2.3658 2.5978 2e-5 4.7432 0.78862 6.4364 2.3658 1.7164 1.5772 2.5745 3.5603 2.5746 5.9493v1.3569m-14.091-3.0616h10.229c-0.27835-0.95096-0.8814-1.7048-1.8092-2.2614-0.92779-0.57985-2.0295-0.86978-3.3052-0.86979s-2.389 0.28994-3.34 0.86979c-0.92777 0.57986-1.5192 1.3337-1.7744 2.2614"/>
   <path d="m387.0913,486.79067v2.26144c1.39165-1.04373 2.49337-1.75115 3.30518-2.12227s1.64678-.55665 2.50498-.55667c1.22928,2e-005 2.3658.44071 3.40956,1.32208 .64942.53348.97414,1.07854.97416,1.63519-2e-005,.48709-.17398.90459-.52187,1.25249s-.75384.52188-1.2177.52187c-.41752,1e-005-.8698-.20873-1.35687-.62624s-.93938-.62623-1.35686-.62625c-.55668,2e-005-1.24091.25515-2.05269.76541-.78862.48709-2.01791,1.41486-3.68789,2.78331v5.11434h4.836c.7654,0 1.29887.10438 1.60041.31312 .48706.37111.7306.84659.73062,1.42645-2e-005,.67263-.27835,1.17131-.835,1.49603-.27834.16236-.77702.24354-1.49603.24354h-10.33304c-.76541,0-1.29888-.11597-1.6004-.34792-.46389-.34791-.69583-.81179-.69583-1.39165 0-.67263.27833-1.17131.83499-1.49603 .23194-.16236.71902-.24354 1.46124-.24354h2.0179v-8.24556h-1.2177c-.7886,1e-005-1.31047-.11596-1.56561-.34791-.48708-.34791-.73062-.81179-.73062-1.39166 0-1.1597.76541-1.73955 2.29623-1.73957h4.69684"/>
   <path d="m422.41 498.52v-13.325h-0.52187c-0.76541 1e-5 -1.2873-0.10436-1.5656-0.31312-0.48708-0.3711-0.73062-0.84658-0.73062-1.4264 0-0.64942 0.27833-1.1481 0.835-1.496 0.25513-0.16234 0.74221-0.24352 1.4612-0.24354h8.8022c1.9715 2e-5 3.5951 0.54508 4.8708 1.6352 1.2989 1.0902 1.9483 2.4586 1.9483 4.1054-2e-5 1.4844-0.73064 2.7949-2.1919 3.9314 2.4586 1.2293 3.6879 2.9109 3.6879 5.0448-2e-5 1.67-0.62627 3.0152-1.8787 4.0358s-2.9109 1.5308-4.9752 1.5308h-10.263c-0.7886 0-1.3105-0.11597-1.5656-0.34792-0.48708-0.34791-0.73062-0.81179-0.73062-1.3916 0-0.67263 0.27833-1.1713 0.835-1.496 0.25513-0.16236 0.74221-0.24354 1.4612-0.24354h0.52187m3.4791-8.4195h3.9314c1.2525 1e-5 2.2614-0.24352 3.0268-0.73062 0.78859-0.51026 1.1829-1.1597 1.1829-1.9483-2e-5 -0.69582-0.31314-1.2409-0.93937-1.6352s-1.4844-0.59144-2.5746-0.59145h-4.6273v4.9056m0 8.4195h6.0885c2.3658 0 3.5487-0.62624 3.5487-1.8787-2e-5 -0.92776-0.4987-1.6932-1.496-2.2962-0.8582-0.51026-2.0063-0.7654-3.4444-0.76541h-4.6968v4.9404"/>
   <path d="m450.54 486.34c2.4586 2e-5 4.5461 0.78862 6.2624 2.3658 1.7396 1.5772 2.6093 3.4907 2.6094 5.7406-1e-5 2.273-0.8698 4.1982-2.6094 5.7754-1.7396 1.554-3.8619 2.331-6.3668 2.331s-4.6273-0.77701-6.3668-2.331c-1.7396-1.5772-2.6094-3.5023-2.6094-5.7754 0-2.2962 0.86978-4.2214 2.6094-5.7754s3.8966-2.331 6.4712-2.331m-0.0348 3.4791c-1.5772 1e-5 -2.8993 0.4407-3.9662 1.3221s-1.6004 1.9831-1.6004 3.3052c-1e-5 1.2989 0.52186 2.4006 1.5656 3.3052 1.0669 0.88138 2.3774 1.3221 3.9314 1.3221s2.8529-0.44069 3.8966-1.3221c1.0669-0.90457 1.6004-2.0063 1.6004-3.3052s-0.53349-2.389-1.6004-3.2704c-1.0438-0.90457-2.3194-1.3569-3.827-1.3569"/>
   <path d="m472.48 488.57c-1e-5 -1.1829 0.7654-1.7743 2.2962-1.7744h3.166c0.76539 2e-5 1.2989 0.10439 1.6004 0.31312 0.48706 0.37113 0.7306 0.84661 0.73062 1.4264-2e-5 1.0438-0.61467 1.6236-1.8439 1.7396l-4.5925 3.827 5.2883 4.4185c1.2525 0.0696 1.8787 0.64944 1.8787 1.7396-2e-5 0.64944-0.27835 1.1481-0.83499 1.496-0.25516 0.16236-0.74224 0.24354-1.4612 0.24354h-3.8966c-0.76542 0-1.3105-0.11597-1.6352-0.34792-0.4639-0.34791-0.69584-0.82339-0.69583-1.4264-1e-5 -0.88138 0.46387-1.4496 1.3917-1.7048l-2.6094-2.1223-2.5398 2.1223c0.88137 0.37111 1.3221 0.93937 1.3221 1.7048-1e-5 1.1829-0.76542 1.7744-2.2962 1.7744h-3.8618c-1.5308 0-2.2962-0.57986-2.2962-1.7396 0-1.0901 0.62624-1.67 1.8787-1.7396l5.0448-4.4533-4.4533-3.7923c-1.2061-0.11596-1.8092-0.69582-1.8092-1.7396 0-1.1597 0.76541-1.7396 2.2962-1.7396h3.2008c0.7886 2e-5 1.3221 0.11599 1.6004 0.34792 0.46387 0.34792 0.69581 0.80021 0.69582 1.3569-1e-5 0.67265-0.30153 1.2061-0.90457 1.6004l2.1223 1.7048 2.1223-1.7396c-0.60307-0.41748-0.90459-0.91616-0.90458-1.496"/>
  </g>
 </g>
</svg>
